<svg width="140" height="140" viewBox="0 0 140 140" fill="none" xmlns="http://www.w3.org/2000/svg">
<path d="M58.3333 77.2917C57.173 77.2917 56.0602 77.7526 55.2397 78.5731C54.4193 79.3935 53.9583 80.5063 53.9583 81.6667C53.9583 82.827 54.4193 83.9398 55.2397 84.7603C56.0602 85.5807 57.173 86.0417 58.3333 86.0417H81.6666C82.827 86.0417 83.9398 85.5807 84.7602 84.7603C85.5807 83.9398 86.0416 82.827 86.0416 81.6667C86.0416 80.5063 85.5807 79.3935 84.7602 78.5731C83.9398 77.7526 82.827 77.2917 81.6666 77.2917H58.3333Z" fill="#F8F8F8"/>
<path fill-rule="evenodd" clip-rule="evenodd" d="M85.5458 13.5917C86.5832 13.073 87.7841 12.9875 88.8845 13.3539C89.985 13.7204 90.8948 14.5088 91.4142 15.5458L101.99 36.6975C104.487 36.8258 106.756 37.0183 108.815 37.3158C114.975 38.1967 120.073 40.0983 123.696 44.5783C127.318 49.0642 128.112 54.4425 127.686 60.6492C127.278 66.6633 125.644 74.2525 123.614 83.7317L120.983 96.0225C119.613 102.422 118.498 107.608 117.098 111.656C115.64 115.885 113.715 119.356 110.437 122.01C107.158 124.664 103.355 125.813 98.9217 126.356C94.6633 126.875 89.355 126.875 82.8217 126.875H57.1784C50.6334 126.875 45.3309 126.875 41.0725 126.356C36.6392 125.813 32.8358 124.664 29.5575 122.01C26.2734 119.356 24.3542 115.885 22.8959 111.662C21.4959 107.608 20.3875 102.422 19.0109 96.0283L16.38 83.7375C14.35 74.2525 12.7225 66.6633 12.3084 60.6492C11.8825 54.4425 12.6759 49.0642 16.2984 44.5783C19.915 40.0983 25.0134 38.1967 31.1733 37.3158C33.2325 37.0242 35.5075 36.8258 37.9984 36.6975L48.5917 15.5458C49.1154 14.517 50.0244 13.7369 51.1208 13.3754C52.2172 13.014 53.412 13.1005 54.4449 13.6161C55.4777 14.1318 56.2649 15.0348 56.6349 16.1283C57.0049 17.2219 56.9276 18.4173 56.42 19.4542L47.9034 36.47C50.0267 36.4583 52.2609 36.4583 54.6059 36.4583H85.3942C87.7392 36.4583 89.9733 36.4583 92.0967 36.47L83.5858 19.4542C83.0672 18.4168 82.9817 17.2159 83.3481 16.1155C83.7146 15.015 84.503 14.1052 85.54 13.5858M33.4367 45.8383L31.0859 50.54C30.8239 51.0546 30.6665 51.6159 30.6225 52.1916C30.5786 52.7673 30.649 53.3461 30.8298 53.8944C31.0106 54.4428 31.2981 54.9499 31.6759 55.3866C32.0536 55.8234 32.514 56.181 33.0306 56.4389C33.5472 56.6968 34.1097 56.8499 34.6858 56.8894C35.2618 56.9288 35.84 56.8539 36.3869 56.6688C36.9339 56.4838 37.4388 56.1923 37.8725 55.8112C38.3063 55.4301 38.6603 54.9669 38.9142 54.4483L43.505 45.2667C46.83 45.2083 50.6217 45.2025 54.9617 45.2025H85.0383C89.3783 45.2025 93.17 45.2025 96.495 45.2608L101.086 54.4483C101.61 55.4772 102.519 56.2573 103.615 56.6188C104.711 56.9802 105.906 56.8937 106.939 56.378C107.972 55.8624 108.759 54.9594 109.129 53.8658C109.499 52.7723 109.422 51.5768 108.914 50.54L106.563 45.8383L107.578 45.9725C112.735 46.7133 115.261 48.0608 116.894 50.0733C118.498 52.0567 119.286 54.7575 118.971 59.7858H21.0292C20.7142 54.7575 21.5017 52.0567 23.1059 50.0733C24.7392 48.0608 27.265 46.7133 32.4217 45.9725L33.4367 45.8383ZM25.0134 82.25C24.0106 77.6946 23.0752 73.1247 22.2075 68.5417H117.793C116.922 73.1244 115.984 77.6944 114.981 82.25L112.484 93.9167C111.038 100.654 110.034 105.315 108.827 108.803C107.66 112.187 106.47 113.972 104.936 115.208C103.408 116.445 101.407 117.238 97.8658 117.67C94.1967 118.119 89.425 118.125 82.5358 118.125H57.4584C50.575 118.125 45.8034 118.119 42.1342 117.67C38.5875 117.238 36.5925 116.445 35.0642 115.208C33.53 113.972 32.3342 112.181 31.1733 108.803C29.9658 105.315 28.9567 100.654 27.5159 93.9167L25.0134 82.25Z" fill="#F8F8F8"/>
</svg>
