<svg width="205" height="205" viewBox="0 0 205 205" fill="none" xmlns="http://www.w3.org/2000/svg">
<path d="M136.635 204.821L198.272 191.487C198.272 191.487 176.029 57.0427 175.85 56.0433C175.696 55.0525 174.876 54.4033 174.048 54.4033C173.219 54.4033 157.571 53.2417 157.571 53.2417C157.571 53.2417 146.68 42.3596 145.279 41.1894C144.977 40.9163 144.627 40.702 144.246 40.5573L136.439 204.821H136.635ZM93.0421 9.08958C94.2037 9.08958 95.3569 9.41417 96.5014 10.2427C88.0964 14.2146 81.8715 38.2425 78.079 58.341C72.7268 60.0712 67.3477 61.7171 61.9438 63.2781C66.3769 48.0312 74.0881 9.175 93.0421 9.175V9.08958ZM107.591 48.279V49.4321C101.151 51.4137 93.0696 53.5663 86.1423 55.7188C90.1227 40.5402 94.5283 19.126 100.952 16.3415C102.6 20.6208 107.591 40.3865 107.591 48.279ZM108.195 15.1969C114.123 15.829 120.941 36.6025 123.401 44.1875C120.42 45.1613 118.123 46.1606 114.51 47.3138V45.1613C114.51 38.7379 109.69 19.4506 108.195 15.1798V15.1969ZM136.752 40.2071L136.085 40.3865C136.085 40.3865 133.617 41.0271 129.987 42.1802C126.374 31.6483 116.942 7.93646 105.564 7.93646H104.582C101.285 3.78521 97.3044 2 93.8535 2C67.3231 2 57.6473 49.116 53.6754 65.9346C43.4767 69.0523 36.054 71.3671 35.2254 71.6917C29.4598 73.511 29.2975 73.6733 28.6313 79.1229C27.9906 83.0692 13 183.244 13 183.244L128.834 205L136.752 40.2071Z" fill="#FAFFFD"/>
<path d="M81.2217 97.6314C81.7048 97.8293 81.9696 97.9504 81.9696 97.9504L81.1404 97.865L81.2217 97.6314C79.063 96.747 72.5451 94.3287 65.8167 94.3287C53.4569 94.3287 52.97 102.067 53.97 104.075C53.97 114.598 80.645 118.724 80.645 143.614C80.645 163.217 68.345 175.731 51.5521 175.731C31.445 175.731 21.3146 163.217 21.3146 163.217L26.8325 145.399C26.8325 145.399 37.4669 154.505 46.3075 154.505C47.3799 154.54 48.4486 154.361 49.4509 153.978C50.4532 153.595 51.3689 153.016 52.1446 152.275C52.9202 151.533 53.54 150.644 53.9678 149.66C54.3955 148.676 54.6226 147.617 54.6356 146.544C54.6356 132.715 31.9661 132.074 31.9661 109.311C31.6756 90.2031 45.385 71.5908 73.1967 71.5908C83.9336 71.5908 87.6602 75.4865 87.6602 75.4865L81.2217 97.6314Z" fill="#1137BC"/>
<path d="M124.348 108.145C124.831 108.343 125.096 108.464 125.096 108.464L124.267 108.379L124.348 108.145C122.189 107.261 115.671 104.842 108.943 104.842C96.583 104.842 96.0962 112.581 97.0962 114.588C97.0962 125.112 123.771 129.237 123.771 154.128C123.771 173.731 111.471 186.244 94.6783 186.244C74.5712 186.244 64.4407 173.731 64.4407 173.731L69.9587 155.913C69.9587 155.913 80.593 165.018 89.4337 165.018C90.506 165.054 91.5747 164.875 92.577 164.492C93.5793 164.109 94.4951 163.529 95.2707 162.788C96.0463 162.047 96.6662 161.158 97.0939 160.174C97.5217 159.19 97.7487 158.13 97.7618 157.057C97.7618 143.229 75.0922 142.588 75.0922 119.824C74.8018 100.717 88.5112 82.1044 116.323 82.1044C127.06 82.1044 130.786 86 130.786 86L124.348 108.145Z" fill="#1137BC"/>
</svg>
